<svg width="80" height="32" viewBox="0 0 80 32" fill="none" xmlns="http://www.w3.org/2000/svg">
<g clip-path="url(#clip0)">
<path d="M55.9824 9.1176C55.7381 10.0711 55.606 11.0722 55.606 12.1052C55.606 18.7239 60.9628 24.1031 67.6128 24.2063C67.6769 24.2063 67.7369 24.2103 67.801 24.2103C70.8157 24.2103 73.5742 23.1257 75.7041 21.3261V24.2103H79.996V16.1614V14.7431V13.2454V11.9025H68.954V16.1614H73.6863C72.3891 18.0088 70.2392 19.2165 67.801 19.2165C67.5248 19.2165 67.2525 19.2006 66.9843 19.1688C66.2636 19.0894 65.575 18.9026 64.9344 18.6245C60.5465 17.091 57.1674 13.444 56.0344 8.91101C56.0224 8.97855 56.0024 9.04609 55.9824 9.1176Z" fill="url(#paint0_linear)"/>
<path d="M1.15304 31.0197V28.1116H0V27.623H2.85857V28.1116H1.70153V31.0197H1.15304Z" fill="#2F3845"/>
<path d="M4.01963 31.0197V27.623H6.27366V28.1116H4.57212V28.9817H5.85328V29.4544H4.57212V30.5311H6.33771V31.0197H4.01963Z" fill="#2F3845"/>
<path d="M7.43469 29.3194C7.42267 28.8347 7.59883 28.4215 7.95916 28.0719C8.31948 27.7263 8.74386 27.5554 9.23631 27.5634C9.54859 27.5634 9.83284 27.6349 10.0931 27.7739C10.3533 27.913 10.5575 28.1037 10.7056 28.346L10.2893 28.6519C10.037 28.2586 9.68872 28.064 9.24031 28.064C8.88799 28.064 8.59173 28.1831 8.35952 28.4215C8.12331 28.6599 8.0072 28.9578 8.0072 29.3194C8.0072 29.6809 8.12331 29.9788 8.35952 30.2172C8.59573 30.4556 8.88799 30.5748 9.24031 30.5748C9.68872 30.5748 10.037 30.3801 10.2893 29.9868L10.7056 30.2887C10.5575 30.5311 10.3533 30.7218 10.0971 30.8648C9.84085 31.0038 9.55259 31.0714 9.24031 31.0714C8.74787 31.0793 8.32349 30.9085 7.96316 30.5629C7.59883 30.2212 7.42267 29.804 7.43469 29.3194Z" fill="#2F3845"/>
<path d="M11.8667 31.0197V27.623H12.4152V28.9777H14.1367V27.623H14.6892V31.0197H14.1367V29.4663H12.4152V31.0197H11.8667Z" fill="#2F3845"/>
<path d="M18.1243 27.623H18.6728V31.0753H18.4886L16.3987 28.7195V31.0197H15.8503V27.5673H16.0424L18.1243 29.9153V27.623Z" fill="#2F3845"/>
<path d="M20.7787 27.623H20.2302V31.0197H20.7787V27.623Z" fill="#2F3845"/>
<path d="M22.2801 29.3194C22.268 28.8347 22.4442 28.4215 22.8045 28.0719C23.1648 27.7263 23.5892 27.5554 24.0817 27.5634C24.394 27.5634 24.6782 27.6349 24.9384 27.7739C25.1987 27.913 25.4029 28.1037 25.551 28.346L25.1346 28.6519C24.8824 28.2586 24.5341 28.064 24.0857 28.064C23.7334 28.064 23.4371 28.1831 23.2049 28.4215C22.9687 28.6599 22.8526 28.9578 22.8526 29.3194C22.8526 29.6809 22.9687 29.9788 23.2049 30.2172C23.4411 30.4556 23.7334 30.5748 24.0857 30.5748C24.5341 30.5748 24.8824 30.3801 25.1346 29.9868L25.551 30.2887C25.4029 30.5311 25.1987 30.7218 24.9424 30.8648C24.6862 31.0038 24.398 31.0714 24.0857 31.0714C23.5932 31.0793 23.1688 30.9085 22.8085 30.5629C22.4442 30.2212 22.268 29.804 22.2801 29.3194Z" fill="#2F3845"/>
<path d="M29.3704 31.0197L29.1262 30.4556H27.5848L27.3406 31.0197H26.7561L28.2654 27.5634H28.4536L29.963 31.0197H29.3704ZM28.93 29.9868L28.3575 28.5804L27.781 29.9868H28.93Z" fill="#2F3845"/>
<path d="M31.124 31.0197V27.623H31.6765V30.5311H33.2419V31.0197H31.124Z" fill="#2F3845"/>
<path d="M40.8327 27.623H41.4333L40.1001 31.0753H39.9199L38.899 28.6678L37.8741 31.0753H37.6899L36.3567 27.623H36.9613L37.818 29.9192L38.7989 27.5673H38.9911L39.976 29.9192L40.8327 27.623Z" fill="#2F3845"/>
<path d="M42.4102 29.3194C42.4022 28.8347 42.5783 28.4215 42.9346 28.0719C43.291 27.7263 43.7153 27.5554 44.2078 27.5634C44.6962 27.5554 45.1206 27.7263 45.4809 28.0719C45.8413 28.4175 46.0174 28.8347 46.0054 29.3194C46.0174 29.804 45.8413 30.2172 45.4809 30.5668C45.1206 30.9125 44.6962 31.0833 44.2078 31.0753C43.7153 31.0833 43.291 30.9125 42.9346 30.5668C42.5743 30.2212 42.4022 29.804 42.4102 29.3194ZM45.4409 29.3154C45.4409 28.9578 45.3248 28.6599 45.0886 28.4215C44.8524 28.1831 44.5601 28.064 44.2118 28.064C43.8595 28.064 43.5632 28.1831 43.331 28.4175C43.0988 28.6559 42.9787 28.9539 42.9787 29.3114C42.9787 29.6769 43.0948 29.9749 43.327 30.2172C43.5592 30.4556 43.8515 30.5748 44.2118 30.5748C44.5601 30.5748 44.8524 30.4556 45.0886 30.2132C45.3248 29.9709 45.4409 29.6769 45.4409 29.3154Z" fill="#2F3845"/>
<path d="M49.9329 31.0197H49.3044L48.3275 29.7047H47.6989V31.0197H47.1504V27.623H48.3995C48.7479 27.623 49.0241 27.7223 49.2403 27.913C49.4565 28.1076 49.5606 28.3579 49.5606 28.6638C49.5606 28.8863 49.5005 29.081 49.3844 29.2518C49.2683 29.4187 49.1082 29.5418 48.9 29.6213L49.9329 31.0197ZM47.6989 28.1076V29.224H48.3875C48.5757 29.224 48.7238 29.1724 48.8319 29.073C48.94 28.9737 48.9961 28.8386 48.9961 28.6678C48.9961 28.501 48.944 28.3659 48.8319 28.2626C48.7238 28.1593 48.5757 28.1076 48.3875 28.1076H47.6989Z" fill="#2F3845"/>
<path d="M51.094 31.0197V27.623H51.6425V30.5311H53.2119V31.0197H51.094Z" fill="#2F3845"/>
<path d="M54.3529 31.0197V27.623H55.4259C55.9824 27.623 56.4308 27.7779 56.7751 28.0918C57.1194 28.4056 57.2876 28.8108 57.2876 29.3154C57.2876 29.812 57.1154 30.2212 56.7711 30.539C56.4268 30.8568 55.9784 31.0197 55.4259 31.0197H54.3529ZM54.9054 30.5311H55.4259C55.8182 30.5311 56.1345 30.4198 56.3747 30.1934C56.6109 29.9669 56.7311 29.6769 56.7311 29.3154C56.7311 28.9499 56.615 28.6599 56.3787 28.4414C56.1425 28.2229 55.8262 28.1156 55.4299 28.1156H54.9094V30.5311H54.9054Z" fill="#2F3845"/>
<path d="M61.3833 29.3551C61.3712 28.8704 61.5474 28.4572 61.9037 28.1076C62.26 27.762 62.6884 27.5912 63.1889 27.5991C63.7894 27.5991 64.2618 27.8375 64.6061 28.3103L64.2058 28.636C63.9496 28.2785 63.6093 28.0997 63.1849 28.0997C62.8245 28.0997 62.5323 28.2189 62.3001 28.4533C62.0719 28.6916 61.9558 28.9896 61.9558 29.3472C61.9558 29.7127 62.0719 30.0146 62.3121 30.2569C62.5483 30.4993 62.8526 30.6185 63.2169 30.6185C63.6733 30.6185 64.0136 30.4476 64.2378 30.102V29.7365H63.1849V29.2518H64.7903V30.2093C64.6342 30.4834 64.414 30.7019 64.1297 30.8648C63.8455 31.0277 63.5332 31.1071 63.1889 31.1071C62.6884 31.1151 62.26 30.9442 61.9037 30.5986C61.5514 30.2609 61.3792 29.8438 61.3833 29.3551Z" fill="#2F3845"/>
<path d="M68.5217 31.0197H67.8931L66.9162 29.7047H66.2877V31.0197H65.7352V27.623H66.9843C67.3326 27.623 67.6089 27.7223 67.8251 27.913C68.0412 28.1076 68.1453 28.3579 68.1453 28.6638C68.1453 28.8863 68.0893 29.081 67.9692 29.2518C67.8531 29.4187 67.6929 29.5418 67.4847 29.6213L68.5217 31.0197ZM66.2877 28.1076V29.224H66.9763C67.1644 29.224 67.3126 29.1724 67.4207 29.073C67.5288 28.9737 67.5848 28.8386 67.5848 28.6678C67.5848 28.501 67.5328 28.3659 67.4207 28.2626C67.3126 28.1593 67.1644 28.1076 66.9763 28.1076H66.2877Z" fill="#2F3845"/>
<path d="M68.882 29.3194C68.874 28.8347 69.0501 28.4215 69.4065 28.0719C69.7628 27.7263 70.1872 27.5554 70.6796 27.5634C71.1681 27.5554 71.5924 27.7263 71.9528 28.0719C72.3131 28.4175 72.4892 28.8347 72.4772 29.3194C72.4892 29.804 72.3131 30.2172 71.9528 30.5668C71.5924 30.9125 71.1681 31.0833 70.6796 31.0753C70.1872 31.0833 69.7628 30.9125 69.4065 30.5668C69.0461 30.2212 68.874 29.804 68.882 29.3194ZM71.9127 29.3154C71.9127 28.9578 71.7966 28.6599 71.5604 28.4215C71.3242 28.1831 71.0319 28.064 70.6836 28.064C70.3313 28.064 70.035 28.1831 69.8028 28.4175C69.5706 28.6559 69.4505 28.9539 69.4505 29.3114C69.4505 29.6769 69.5666 29.9749 69.7988 30.2172C70.031 30.4556 70.3233 30.5748 70.6836 30.5748C71.0319 30.5748 71.3242 30.4556 71.5604 30.2132C71.7966 29.9788 71.9127 29.6769 71.9127 29.3154Z" fill="#2F3845"/>
<path d="M73.6423 29.6451V27.623H74.1948V29.6809C74.1948 29.9629 74.2749 30.1815 74.431 30.3404C74.5871 30.4993 74.7953 30.5787 75.0556 30.5787C75.3118 30.5787 75.516 30.4993 75.6721 30.3404C75.8282 30.1815 75.9043 29.9629 75.9043 29.6809V27.623H76.4528V29.6451C76.4528 30.0861 76.3207 30.4317 76.0605 30.69C75.8002 30.9482 75.4639 31.0753 75.0516 31.0753C74.6352 31.0753 74.2949 30.9482 74.0306 30.69C73.7744 30.4357 73.6423 30.0861 73.6423 29.6451Z" fill="#2F3845"/>
<path d="M77.5898 31.0197V27.623H78.839C79.1833 27.623 79.4635 27.7223 79.6797 27.913C79.8959 28.1076 80 28.3579 80 28.6638C80 28.9697 79.8919 29.22 79.6757 29.4147C79.4595 29.6094 79.1793 29.7087 78.839 29.7087H78.1383V31.0197H77.5898ZM78.1383 29.224H78.8269C79.0151 29.224 79.1672 29.1724 79.2713 29.073C79.3794 28.9737 79.4315 28.8386 79.4315 28.6678C79.4315 28.497 79.3794 28.3579 79.2713 28.2586C79.1632 28.1593 79.0151 28.1076 78.8269 28.1076H78.1383V29.224Z" fill="#2F3845"/>
<path d="M56.0385 8.91102C57.1675 13.444 60.5505 17.091 64.9385 18.6246C62.3561 17.5042 60.5625 14.9179 60.6346 11.9264C60.7267 8.09262 63.9216 4.99383 67.785 4.98588C69.983 4.98191 71.9528 5.95922 73.27 7.50067C74.0026 8.3588 75.0796 8.85143 76.2126 8.85143H79.5516C78.1263 3.75034 73.4061 0 67.805 0C62.18 0 57.4517 3.77815 56.0385 8.91102Z" fill="url(#paint1_linear)"/>
<path d="M52.4632 0C50.7176 0 49.1803 1.14417 48.6918 2.80878L44.9124 15.6648H44.8484L40.0521 0H34.9955L29.8749 15.6608H29.8108L25.563 0H0.584534V1.94271C0.584534 3.81787 2.11791 5.33946 4.00761 5.33946H20.5585L26.2236 24.1825H32.7175L37.4897 10.1982H37.5538L41.8096 24.1825H48.3355L56.1265 0H52.4632Z" fill="url(#paint2_linear)"/>
<path d="M12.7635 6.90475H6.06147V24.1825H12.7635V6.90475Z" fill="url(#paint3_linear)"/>
</g>
<defs>
<linearGradient id="paint0_linear" x1="57.7541" y1="16.5582" x2="75.109" y2="16.5582" gradientUnits="userSpaceOnUse">
<stop stop-color="#333B44"/>
<stop offset="1" stop-color="#4F5A63"/>
</linearGradient>
<linearGradient id="paint1_linear" x1="9.41356" y1="20.8053" x2="9.41356" y2="6.40149" gradientUnits="userSpaceOnUse">
<stop offset="0.0403" stop-color="#FF0700"/>
<stop offset="1" stop-color="#FF6D00"/>
</linearGradient>
<linearGradient id="paint2_linear" x1="9.41356" y1="20.8053" x2="9.41356" y2="6.40149" gradientUnits="userSpaceOnUse">
<stop offset="0.0403" stop-color="#FF0700"/>
<stop offset="1" stop-color="#FF6D00"/>
</linearGradient>
<linearGradient id="paint3_linear" x1="9.41356" y1="20.8053" x2="9.41356" y2="6.40149" gradientUnits="userSpaceOnUse">
<stop offset="0.0403" stop-color="#FF0700"/>
<stop offset="1" stop-color="#FF6D00"/>
</linearGradient>
<clipPath id="clip0">
<rect width="80" height="31.1111" fill="white"/>
</clipPath>
</defs>
</svg>
